<svg xmlns="http://www.w3.org/2000/svg" width="14" height="14.393" viewBox="0 0 14 14.393"><defs><style>.a{fill:#6f6f6f;}</style></defs><path class="a" d="M9.272,11.715A2.519,2.519,0,1,1,11.791,9.2a2.519,2.519,0,0,1-2.519,2.519m5.347-1.821a5.591,5.591,0,0,0,.05-.7,6.154,6.154,0,0,0-.05-.72L16.138,7.3a.363.363,0,0,0,.086-.461l-1.439-2.49a.354.354,0,0,0-.439-.158l-1.792.72a5.216,5.216,0,0,0-1.216-.705L11.071,2.3a.364.364,0,0,0-.36-.3H7.833a.364.364,0,0,0-.36.3L7.207,4.209a5.216,5.216,0,0,0-1.216.705L4.2,4.195a.354.354,0,0,0-.439.158L2.321,6.843a.355.355,0,0,0,.086.461L3.925,8.477a6.153,6.153,0,0,0-.05.72,5.591,5.591,0,0,0,.05.7L2.407,11.089a.355.355,0,0,0-.086.461L3.76,14.04A.362.362,0,0,0,4.2,14.2l1.792-.727a5,5,0,0,0,1.216.712l.266,1.907a.364.364,0,0,0,.36.3h2.879a.364.364,0,0,0,.36-.3l.266-1.907a5.24,5.24,0,0,0,1.216-.712l1.792.727a.362.362,0,0,0,.439-.158l1.439-2.49a.363.363,0,0,0-.086-.461Z" transform="translate(-2.271 -2)"/></svg>