<svg xmlns="http://www.w3.org/2000/svg" width="26" height="27.444" viewBox="0 0 26 27.444"><defs><style>.a{fill:#6f6f6f;}</style></defs><path class="a" d="M25.667,17.444a8.646,8.646,0,0,0-7.4,4.174,23.467,23.467,0,0,1-2.716.159C9.171,21.778,4,19.192,4,16V11.667c0,3.192,5.171,5.778,11.556,5.778s11.556-2.586,11.556-5.778V16a3.223,3.223,0,0,1-.4,1.517,4.9,4.9,0,0,0-1.04-.072M15.556,14.556c6.384,0,11.556-2.586,11.556-5.778S21.94,3,15.556,3,4,5.586,4,8.778s5.171,5.778,11.556,5.778m1.589,10.053a14.472,14.472,0,0,1-1.589.058C9.171,24.667,4,22.081,4,18.889v4.333C4,26.414,9.171,29,15.556,29a13.939,13.939,0,0,0,1.921-.087,8.262,8.262,0,0,1-.332-4.3m8.522-4.276-4.333,4.333h2.889v5.778h2.889V24.667H30Z" transform="translate(-4 -3)"/></svg>