<svg xmlns="http://www.w3.org/2000/svg" width="19" height="22.228" viewBox="0 0 19 22.228"><defs><style>.a{fill:#6f6f6f;}</style></defs><path class="a" d="M6.117,2A2.123,2.123,0,0,0,4,4.117V21.053A2.123,2.123,0,0,0,6.117,23.17h4.234V21.159L20.936,10.574V8.351L14.585,2H6.117m7.409,1.588,5.822,5.822H13.526V3.588m7.515,10.056a.8.8,0,0,0-.423.212L19.56,14.914l2.223,2.223,1.058-1.058a.644.644,0,0,0,0-.847l-1.376-1.376a.55.55,0,0,0-.423-.212m-2.117,1.905-6.457,6.457v2.223h2.223l6.457-6.457Z" transform="translate(-4 -2)"/></svg>