<svg xmlns="http://www.w3.org/2000/svg" width="12" height="12" viewBox="0 0 12 12">
  <path id="link-variant" d="M7.842,9.673a.632.632,0,0,1,0,.922.654.654,0,0,1-.922,0A3.248,3.248,0,0,1,6.92,6h0l2.3-2.3a3.245,3.245,0,0,1,4.59,4.59l-.967.967a4.484,4.484,0,0,0-.26-1.571l.305-.312a1.946,1.946,0,1,0-2.753-2.753L7.842,6.92a1.936,1.936,0,0,0,0,2.753M9.673,6.92a.654.654,0,0,1,.922,0,3.248,3.248,0,0,1,0,4.59h0l-2.3,2.3a3.245,3.245,0,0,1-4.59-4.59l.967-.967a4.545,4.545,0,0,0,.26,1.577l-.305.305a1.946,1.946,0,1,0,2.753,2.753l2.292-2.292a1.936,1.936,0,0,0,0-2.753A.632.632,0,0,1,9.673,6.92Z" transform="translate(-2.757 -2.757)" fill="#6f6f6f"/>
</svg>
