<svg xmlns="http://www.w3.org/2000/svg" width="14.104" height="14.848" viewBox="0 0 14.104 14.848"><defs><style>.a{fill:none;}.b{fill:#6f6f6f;}</style></defs><path class="a" d="M0,0H12.493V12.333H0Z" transform="translate(0.806 1.181)"/><path class="b" d="M11.753,12.683h0A1.5,1.5,0,0,1,10.3,11.23V3.453A1.5,1.5,0,0,1,11.753,2h0a1.5,1.5,0,0,1,1.453,1.453V11.23A1.5,1.5,0,0,1,11.753,12.683Z" transform="translate(-4.665 -2)"/><path class="b" d="M12.649,5.8h0A1.267,1.267,0,0,0,12.8,7.314l.149.144a4.421,4.421,0,0,1,1.194,3.025A4.274,4.274,0,0,1,12.8,13.653a4.591,4.591,0,0,1-3.284,1.3,4.73,4.73,0,0,1-3.209-1.3,4.274,4.274,0,0,1-1.343-3.169A4.7,4.7,0,0,1,6.157,7.458l.149-.144A1.089,1.089,0,0,0,6.455,5.8h0A1.218,1.218,0,0,0,4.59,5.658a6.789,6.789,0,0,0-2.09,4.9A7.08,7.08,0,0,0,9.664,17.4a6.93,6.93,0,0,0,6.94-6.843,7.047,7.047,0,0,0-2.09-4.9A1.227,1.227,0,0,0,12.649,5.8Z" transform="translate(-2.5 -2.55)"/></svg>