<svg xmlns="http://www.w3.org/2000/svg" width="13" height="13" viewBox="0 0 13 13"><defs><style>.a{fill:#6f6f6f;}</style></defs><path class="a" d="M2.167,2.167h3.25v3.25H2.167V2.167m8.667,0v3.25H7.583V2.167h3.25M7.583,8.125H8.667V7.042H7.583V5.958H8.667V7.042H9.75V5.958h1.083V7.042H9.75V8.125h1.083V9.75H9.75v1.083H8.667V9.75H7.042v1.083H5.958V8.667H7.583V8.125m1.083,0V9.75H9.75V8.125H8.667m-6.5,2.708V7.583h3.25v3.25H2.167M3.25,3.25V4.333H4.333V3.25H3.25m5.417,0V4.333H9.75V3.25H8.667M3.25,8.667V9.75H4.333V8.667H3.25M2.167,5.958H3.25V7.042H2.167V5.958m2.708,0H7.042V8.125H5.958V7.042H4.875V5.958M5.958,3.25H7.042V5.417H5.958V3.25M1.083,1.083V3.25H0V1.083A1.083,1.083,0,0,1,1.083,0H3.25V1.083H1.083M11.917,0A1.083,1.083,0,0,1,13,1.083V3.25H11.917V1.083H9.75V0h2.167M1.083,9.75v2.167H3.25V13H1.083A1.083,1.083,0,0,1,0,11.917V9.75H1.083m10.833,2.167V9.75H13v2.167A1.083,1.083,0,0,1,11.917,13H9.75V11.917Z"/></svg>