<svg xmlns="http://www.w3.org/2000/svg" width="13" height="12.316" viewBox="0 0 13 12.316"><defs><style>.a{fill:#6f6f6f;}</style></defs><path class="a" d="M15.316,13.263v.684a1.368,1.368,0,0,1-1.368,1.368H4.368A1.368,1.368,0,0,1,3,13.947V4.368A1.368,1.368,0,0,1,4.368,3h9.579a1.368,1.368,0,0,1,1.368,1.368v.684H9.158A1.368,1.368,0,0,0,7.789,6.421v5.474a1.368,1.368,0,0,0,1.368,1.368m0-1.368H16V6.421H9.158m2.737,3.763a1.026,1.026,0,1,1,1.026-1.026A1.026,1.026,0,0,1,11.895,10.184Z" transform="translate(-3 -3)"/></svg>