<svg xmlns="http://www.w3.org/2000/svg" width="14" height="14" viewBox="0 0 14 14"><defs><style>.a{fill:#6f6f6f;}</style></defs><path class="a" d="M12.052,10.4a11.561,11.561,0,0,0,.1-1.4,11.561,11.561,0,0,0-.1-1.4h2.366a5.476,5.476,0,0,1,0,2.8m-3.6,3.892a10.954,10.954,0,0,0,.966-2.492h2.065a5.621,5.621,0,0,1-3.031,2.492M10.638,10.4H7.362a8.806,8.806,0,0,1,0-2.8h3.276A10.209,10.209,0,0,1,10.75,9a10.3,10.3,0,0,1-.112,1.4M9,14.572A9.494,9.494,0,0,1,7.663,11.8h2.674A9.494,9.494,0,0,1,9,14.572M6.2,6.2H4.156A5.546,5.546,0,0,1,7.18,3.708,12.064,12.064,0,0,0,6.2,6.2M4.156,11.8H6.2a12.064,12.064,0,0,0,.98,2.492A5.606,5.606,0,0,1,4.156,11.8m-.574-1.4a5.476,5.476,0,0,1,0-2.8H5.948A11.561,11.561,0,0,0,5.85,9a11.561,11.561,0,0,0,.1,1.4M9,3.421A9.533,9.533,0,0,1,10.337,6.2H7.663A9.533,9.533,0,0,1,9,3.421M13.844,6.2H11.779a10.954,10.954,0,0,0-.966-2.492A5.591,5.591,0,0,1,13.844,6.2M9,2a7,7,0,1,0,7,7A7.007,7.007,0,0,0,9,2Z" transform="translate(-2 -2)"/></svg>