<svg xmlns="http://www.w3.org/2000/svg" width="61.248" height="61.25" viewBox="0 0 61.248 61.25"><defs><style>.a{fill:#404040;}</style></defs><g transform="translate(0)"><path class="a" d="M49.533,17.795a1.2,1.2,0,0,0,1.2-1.2V3.589A3.593,3.593,0,0,0,47.141,0H3.6A3.593,3.593,0,0,0,.007,3.589V57.661A3.593,3.593,0,0,0,3.6,61.25H47.141a3.593,3.593,0,0,0,3.589-3.589V48.848a1.2,1.2,0,0,0-2.393,0v8.813a1.2,1.2,0,0,1-1.2,1.2H3.6a1.2,1.2,0,0,1-1.2-1.2V3.589a1.2,1.2,0,0,1,1.2-1.2H47.141a1.2,1.2,0,0,1,1.2,1.2V16.6A1.2,1.2,0,0,0,49.533,17.795Z" transform="translate(-0.007)"/></g><g transform="translate(14.355 6.46)"><path class="a" d="M131.013,54a11,11,0,0,0-7.551,19.005,1.184,1.184,0,0,0,.128.12,10.985,10.985,0,0,0,14.844,0,1.2,1.2,0,0,0,.128-.12A11,11,0,0,0,131.013,54Zm0,19.619a8.567,8.567,0,0,1-5.2-1.755,5.981,5.981,0,0,1,10.406,0A8.567,8.567,0,0,1,131.013,73.619ZM129.1,64.527V63.75a1.914,1.914,0,1,1,3.828,0v.778a1.914,1.914,0,0,1-3.828,0Zm8.845,5.585a8.3,8.3,0,0,0-3.525-2.954,4.284,4.284,0,0,0,.9-2.63V63.75a4.307,4.307,0,0,0-8.613,0v.778a4.284,4.284,0,0,0,.9,2.63,8.3,8.3,0,0,0-3.525,2.954,8.613,8.613,0,1,1,13.863,0Z" transform="translate(-120.007 -54)"/></g><g transform="translate(24.165 52.397)"><path class="a" d="M209.663,438H203.2a1.2,1.2,0,0,0,0,2.393h6.46a1.2,1.2,0,0,0,0-2.393Z" transform="translate(-202.007 -438)"/></g><g transform="translate(13.638 45.698)"><path class="a" d="M132.191,382H115.2a1.2,1.2,0,1,0,0,2.393h16.987a1.2,1.2,0,1,0,0-2.393Z" transform="translate(-114.007 -382)"/></g><g transform="translate(13.638 38.999)"><path class="a" d="M132.191,326H115.2a1.2,1.2,0,0,0,0,2.393h16.987a1.2,1.2,0,0,0,0-2.393Z" transform="translate(-114.007 -326)"/></g><g transform="translate(8.527 32.3)"><path class="a" d="M73.33,270.35a1.2,1.2,0,1,0,.351.846A1.205,1.205,0,0,0,73.33,270.35Z" transform="translate(-71.287 -270)"/></g><g transform="translate(8.527 38.999)"><path class="a" d="M73.33,326.351a1.2,1.2,0,1,0,.351.846A1.208,1.208,0,0,0,73.33,326.351Z" transform="translate(-71.287 -326)"/></g><g transform="translate(8.527 45.698)"><path class="a" d="M73.33,382.35a1.2,1.2,0,1,0,.351.846A1.208,1.208,0,0,0,73.33,382.35Z" transform="translate(-71.287 -382)"/></g><g transform="translate(13.638 32.3)"><path class="a" d="M132.191,270H115.2a1.2,1.2,0,0,0,0,2.393h16.987a1.2,1.2,0,0,0,0-2.393Z" transform="translate(-114.007 -270)"/></g><g transform="translate(35.599 14.915)"><path class="a" d="M320.727,125.35a5.024,5.024,0,0,0-6.863,1.839l-15.054,26.075a1.2,1.2,0,0,0-.153.465l-1.06,9.492a1.2,1.2,0,0,0,1.9,1.1l7.69-5.664a1.2,1.2,0,0,0,.327-.365l15.054-26.075A5.03,5.03,0,0,0,320.727,125.35Zm-20.449,35.419.553-4.956,3.462,2Zm5.76-4.713-4.558-2.632L313.56,132.5l4.558,2.632Zm14.456-25.039-1.179,2.042-4.558-2.632,1.179-2.042a2.632,2.632,0,0,1,4.558,2.632Z" transform="translate(-297.589 -124.675)"/></g></svg>