<svg xmlns="http://www.w3.org/2000/svg" width="55.296" height="55.296" viewBox="0 0 55.296 55.296"><defs><style>.a{fill:#404040;}</style></defs><g transform="translate(6.912 6.912)"><path class="a" d="M17.976,16.824H6.456A3.46,3.46,0,0,1,3,13.368V6.456A3.46,3.46,0,0,1,6.456,3h11.52a3.46,3.46,0,0,1,3.456,3.456v6.912A3.46,3.46,0,0,1,17.976,16.824ZM6.456,5.3A1.154,1.154,0,0,0,5.3,6.456v6.912A1.154,1.154,0,0,0,6.456,14.52h11.52a1.154,1.154,0,0,0,1.152-1.152V6.456A1.154,1.154,0,0,0,17.976,5.3Z" transform="translate(-3 -3)"/></g><g transform="translate(29.952 34.56)"><path class="a" d="M27.976,28.824H16.456A3.46,3.46,0,0,1,13,25.368V18.456A3.46,3.46,0,0,1,16.456,15h11.52a3.46,3.46,0,0,1,3.456,3.456v6.912A3.46,3.46,0,0,1,27.976,28.824ZM16.456,17.3A1.154,1.154,0,0,0,15.3,18.456v6.912a1.154,1.154,0,0,0,1.152,1.152h11.52a1.154,1.154,0,0,0,1.152-1.152V18.456A1.154,1.154,0,0,0,27.976,17.3Z" transform="translate(-13 -15)"/></g><g transform="translate(29.952 6.912)"><path class="a" d="M27.976,26.04H16.456A3.46,3.46,0,0,1,13,22.584V6.456A3.46,3.46,0,0,1,16.456,3h11.52a3.46,3.46,0,0,1,3.456,3.456V22.584A3.46,3.46,0,0,1,27.976,26.04ZM16.456,5.3A1.154,1.154,0,0,0,15.3,6.456V22.584a1.154,1.154,0,0,0,1.152,1.152h11.52a1.154,1.154,0,0,0,1.152-1.152V6.456A1.154,1.154,0,0,0,27.976,5.3Z" transform="translate(-13 -3)"/></g><g transform="translate(6.912 25.344)"><path class="a" d="M17.976,34.04H6.456A3.46,3.46,0,0,1,3,30.584V14.456A3.46,3.46,0,0,1,6.456,11h11.52a3.46,3.46,0,0,1,3.456,3.456V30.584A3.46,3.46,0,0,1,17.976,34.04ZM6.456,13.3A1.154,1.154,0,0,0,5.3,14.456V30.584a1.154,1.154,0,0,0,1.152,1.152h11.52a1.154,1.154,0,0,0,1.152-1.152V14.456A1.154,1.154,0,0,0,17.976,13.3Z" transform="translate(-3 -11)"/></g><path class="a" d="M49.536,55.3H5.76A5.766,5.766,0,0,1,0,49.536V5.76A5.766,5.766,0,0,1,5.76,0H49.536A5.766,5.766,0,0,1,55.3,5.76V49.536A5.766,5.766,0,0,1,49.536,55.3ZM5.76,2.3A3.46,3.46,0,0,0,2.3,5.76V49.536A3.46,3.46,0,0,0,5.76,52.992H49.536a3.46,3.46,0,0,0,3.456-3.456V5.76A3.46,3.46,0,0,0,49.536,2.3Z"/></svg>