<svg xmlns="http://www.w3.org/2000/svg" width="56.911" height="69.226" viewBox="0 0 56.911 69.226"><defs><style>.a{fill:#404040;}</style></defs><g transform="translate(0 0)"><path class="a" d="M88.136,140H77.3a1.355,1.355,0,1,0,0,2.71h10.84a4.077,4.077,0,0,1,4.065,4.065V179.3a4.077,4.077,0,0,1-4.065,4.065H44.775A4.077,4.077,0,0,1,40.71,179.3V146.775a4.077,4.077,0,0,1,4.065-4.065h12.2a1.355,1.355,0,1,0,0-2.71h-12.2A6.8,6.8,0,0,0,38,146.775V179.3a6.8,6.8,0,0,0,6.775,6.775H88.136a6.8,6.8,0,0,0,6.775-6.775V146.775A6.8,6.8,0,0,0,88.136,140Z" transform="translate(-38 -116.845)"/><path class="a" d="M127.607,77.012a1.31,1.31,0,0,0,0,1.9L139.6,90.9a1.31,1.31,0,0,0,1.9,0l11.992-11.992a1.341,1.341,0,1,0-1.9-1.9L141.9,86.7l-.027-43.616a1.355,1.355,0,1,0-2.71,0l.027,43.616L129.5,77.012A1.31,1.31,0,0,0,127.607,77.012Z" transform="translate(-112.091 -41.729)"/></g></svg>